<?xml version="1.0" standalone="no"?>
<!DOCTYPE svg PUBLIC "-//W3C//DTD SVG 20010904//EN"
 "http://www.w3.org/TR/2001/REC-SVG-20010904/DTD/svg10.dtd">
<svg version="1.0" xmlns="http://www.w3.org/2000/svg"
 width="34.000000pt" height="33.000000pt" viewBox="0 0 34.000000 33.000000"
 preserveAspectRatio="xMidYMid meet">

<g transform="translate(0.000000,33.000000) scale(0.100000,-0.100000)"
fill="#000000" stroke="none">
<path d="M91 243 c-1 -12 6 -28 14 -37 18 -18 49 -10 41 11 -3 8 -6 17 -6 19
0 2 -9 4 -19 4 -11 0 -22 6 -24 13 -3 6 -6 2 -6 -10z"/>
<path d="M75 170 c-4 -6 -15 -8 -26 -5 -24 8 -27 -20 -3 -29 41 -16 84 5 63
31 -14 16 -26 17 -34 3z"/>
<path d="M230 165 c-7 -8 -10 -22 -6 -30 6 -16 32 -20 40 -6 3 5 15 7 26 4 27
-7 25 12 -2 31 -28 20 -42 20 -58 1z"/>
<path d="M185 90 c-9 -15 4 -30 25 -30 10 0 21 -8 23 -17 3 -12 5 -9 6 8 2 38
-37 66 -54 39z"/>
</g>
</svg>
